<svg width="1920" height="1080" viewBox="0 0 1920 1080" xmlns="http://www.w3.org/2000/svg"><rect width="1920" height="1080" fill="#000000"/><path d="M397.5631888678537,1088C391.22985553452037,1152.5801021819498,363.76716797705063,1270.6416081802813,323.47007481169294,1321.740306545849C283.17298164633524,1372.8390049114169,215.0869864030699,1370.18506783349,155.7806298757074,1394.5921901934066C96.47427334834492,1418.9993125533233,34.02416983171634,1470.714057340443,-32.36806435248187,1468.1830407053499C-98.7602985366801,1465.6520240702566,-216.00893776616203,1418.9949790311493,-242.57277522948186,1379.406090382847C-269.1366126928017,1339.8172017345446,-178.37824081974173,1289.9923420152666,-191.75108913240084,1230.649708815536C-205.12393744505994,1171.3070756158056,-326.7465727774257,1073.0307207668147,-322.80986510543653,1023.350291184464C-318.8731574334474,973.6698616021134,-220.70212833924842,976.1560199697346,-168.1308431004659,932.5671313214324C-115.5595578616834,888.9782426731301,-66.8673991687703,768.4550548841356,-7.3821536727414525,761.8169592946502C52.10309182328741,755.1788637051649,127.30525846163488,863.9981020912701,188.78062987570726,892.7385577845203C250.25600128977965,921.4790134777704,326.6729816463352,901.716119751571,361.47007481169294,934.2596934541509C396.2671679770507,966.8032671567308,403.896522201187,1023.4198978180503,397.5631888678537,1088C391.22985553452037,1152.5801021819498,363.76716797705063,1270.6416081802813,323.47007481169294,1321.740306545849" fill="#d4a05a"/></svg>