<svg xmlns="http://www.w3.org/2000/svg" xmlns:xlink="http://www.w3.org/1999/xlink" width="40" zoomAndPan="magnify" viewBox="0 0 30 30.000001" height="40" preserveAspectRatio="xMidYMid meet" version="1.0"><defs><clipPath id="780a895ef9"><path d="M 4.984375 4.210938 L 13.695312 4.210938 L 13.695312 12.917969 L 4.984375 12.917969 Z M 4.984375 4.210938 " clip-rule="nonzero"/></clipPath><clipPath id="c68131babf"><path d="M 16.597656 15.824219 L 25.304688 15.824219 L 25.304688 24.53125 L 16.597656 24.53125 Z M 16.597656 15.824219 " clip-rule="nonzero"/></clipPath><clipPath id="ece422bdb5"><path d="M 4.984375 15.824219 L 13.695312 15.824219 L 13.695312 24.53125 L 4.984375 24.53125 Z M 4.984375 15.824219 " clip-rule="nonzero"/></clipPath><clipPath id="61111e534f"><path d="M 16.597656 4.210938 L 25.304688 4.210938 L 25.304688 12.917969 L 16.597656 12.917969 Z M 16.597656 4.210938 " clip-rule="nonzero"/></clipPath></defs><g clip-path="url(#780a895ef9)"><path fill="#8a2124" d="M 6.433594 4.210938 L 12.242188 4.210938 C 13.042969 4.210938 13.695312 4.859375 13.695312 5.660156 L 13.695312 11.46875 C 13.695312 12.269531 13.042969 12.917969 12.242188 12.917969 L 6.433594 12.917969 C 5.632812 12.917969 4.984375 12.269531 4.984375 11.46875 L 4.984375 5.660156 C 4.984375 4.859375 5.632812 4.210938 6.433594 4.210938 " fill-opacity="1" fill-rule="nonzero"/></g><g clip-path="url(#c68131babf)"><path fill="#8a2124" d="M 18.046875 15.824219 L 23.855469 15.824219 C 24.65625 15.824219 25.304688 16.472656 25.304688 17.273438 L 25.304688 23.082031 C 25.304688 23.882812 24.65625 24.53125 23.855469 24.53125 L 18.046875 24.53125 C 17.246094 24.53125 16.597656 23.882812 16.597656 23.082031 L 16.597656 17.273438 C 16.597656 16.472656 17.246094 15.824219 18.046875 15.824219 " fill-opacity="1" fill-rule="nonzero"/></g><g clip-path="url(#ece422bdb5)"><path fill="#8a2124" d="M 6.433594 15.824219 L 12.242188 15.824219 C 13.042969 15.824219 13.695312 16.472656 13.695312 17.273438 L 13.695312 23.082031 C 13.695312 23.882812 13.042969 24.53125 12.242188 24.53125 L 6.433594 24.53125 C 5.632812 24.53125 4.984375 23.882812 4.984375 23.082031 L 4.984375 17.273438 C 4.984375 16.472656 5.632812 15.824219 6.433594 15.824219 " fill-opacity="1" fill-rule="nonzero"/></g><g clip-path="url(#61111e534f)"><path fill="#8a2124" d="M 18.046875 4.210938 L 23.855469 4.210938 C 24.65625 4.210938 25.304688 4.859375 25.304688 5.660156 L 25.304688 11.46875 C 25.304688 12.269531 24.65625 12.917969 23.855469 12.917969 L 18.046875 12.917969 C 17.246094 12.917969 16.597656 12.269531 16.597656 11.46875 L 16.597656 5.660156 C 16.597656 4.859375 17.246094 4.210938 18.046875 4.210938 " fill-opacity="1" fill-rule="nonzero"/></g></svg>